# xmcd
#
# Track frame offsets:
#	150
#	18459
#	33111
#	47742
#	67107
#	82867
#	96486
#	111620
#	127676
#	142727
#	157197
#	174230
#	190274
#	204454
#	220788
#	234543
#	251047
#	264160
#	279940
#	292222
#
# Disc length: 4150 seconds
#
# Revision: 1
# Processed by: cddbd v1.5.2PL0 Copyright (c) Steve Scherf et al.
# Submitted via: audiograbber 1.83.01
#
DISCID=1f103414
DTITLE=CMA - CDX 416 - Feb 2007
DYEAR=2007
DGENRE=Country
TTITLE0=Kenny Rogers (feat.Don Henley) - Calling Me
TTITLE1=Jason Aldean - Johnny Cash
TTITLE2=Jason Aldean - Johnny Cash (radio ed.)
TTITLE3=Randy Rogers Band - One More Goodbye
TTITLE4=Sarah Buxton - That Kind Of Day
TTITLE5=Chris Young - You're Gonna Love Me
TTITLE6=Con Hunley - Hollow Man
TTITLE7=Kathie Baillie - Love's Funny That Way
TTITLE8=Elizabeth Cook - Sometimes It Takes Balls To Be A Woman
TTITLE9=David Frizzell - Water Makes Her Clothes Stay On
TTITLE10=The Jokers Wild Band - And The Rain
TTITLE11=Lisa Dames - I'd Leave Me
TTITLE12=Taylor Fife - In These Fields
TTITLE13=Eric Lee Beddingfield - Kill The Mullet
TTITLE14=Chris Webb - Midnight Rendezvous
TTITLE15=The Rider/Darren Hincks - Sail Away
TTITLE16=Floyd Flowers - Small Living For A Large Family
TTITLE17=Danny Griego - Wal-Mart Girls
TTITLE18=Mike Aiken - Hillbilly Beach Bum
TTITLE19=Larry Joe Cashen and Guns Of Dixie - Jesse James
EXTD=
EXTT0=
EXTT1=
EXTT2=
EXTT3=
EXTT4=
EXTT5=
EXTT6=
EXTT7=
EXTT8=
EXTT9=
EXTT10=
EXTT11=
EXTT12=
EXTT13=
EXTT14=
EXTT15=
EXTT16=
EXTT17=
EXTT18=
EXTT19=
PLAYORDER=
